<svg width="512" height="512" viewBox="0 0 512 512" fill="none" xmlns="http://www.w3.org/2000/svg">
<circle cx="256" cy="256" r="256" fill="url(#paint0_linear)"/>
<path d="M247.898 149.117C247.898 156.341 245.427 162.9 240.484 168.793C235.542 174.686 229.458 180.009 222.234 184.762C215.201 189.324 207.786 193.316 199.992 196.738C192.198 200.16 185.449 203.012 179.746 205.293C179.746 209.285 179.651 213.372 179.461 217.555C179.271 221.737 178.986 225.919 178.605 230.102C184.689 227.06 191.533 224.208 199.137 221.547C206.741 218.885 213.965 217.555 220.809 217.555C226.322 217.555 230.789 218.695 234.211 220.977C237.823 223.258 239.629 227.25 239.629 232.953C239.629 239.227 237.348 244.835 232.785 249.777C228.413 254.72 223.09 259.092 216.816 262.895C210.543 266.697 203.984 269.928 197.141 272.59C190.297 275.251 184.499 277.342 179.746 278.863C179.746 285.137 179.651 291.41 179.461 297.684C179.271 303.767 178.986 309.85 178.605 315.934C178.415 318.975 178.035 322.777 177.465 327.34C177.085 331.902 176.134 336.37 174.613 340.742C173.283 344.924 171.286 348.632 168.625 351.863C165.964 354.905 162.542 356.426 158.359 356.426C154.367 356.426 150.945 354.525 148.094 350.723C145.242 346.73 142.771 341.693 140.68 335.609C138.779 329.526 137.163 322.777 135.832 315.363C134.691 307.759 133.741 300.345 132.98 293.121C132.41 285.897 132.03 279.243 131.84 273.16C131.84 267.077 131.84 262.419 131.84 259.188C131.84 256.716 131.84 253.104 131.84 248.352C132.03 243.409 132.125 237.991 132.125 232.098C132.315 226.204 132.505 220.026 132.695 213.562C133.076 207.099 133.456 201.016 133.836 195.312C134.216 189.419 134.691 184.286 135.262 179.914C136.022 175.352 136.878 172.025 137.828 169.934C139.919 165.751 144.862 161.664 152.656 157.672C160.641 153.49 169.48 149.878 179.176 146.836C188.871 143.604 198.281 141.038 207.406 139.137C216.721 137.046 223.85 136 228.793 136C231.074 136 233.26 136.19 235.352 136.57C237.633 136.76 239.724 137.331 241.625 138.281C243.526 139.232 245.047 140.562 246.188 142.273C247.328 143.984 247.898 146.266 247.898 149.117ZM379.926 270.023C379.926 278.388 378.975 287.608 377.074 297.684C375.363 307.569 372.322 316.789 367.949 325.344C363.767 333.898 358.159 341.027 351.125 346.73C344.281 352.434 335.632 355.285 325.176 355.285C322.514 355.285 319.758 355.095 316.906 354.715C314.055 354.335 311.298 353.669 308.637 352.719C306.165 351.768 303.884 350.533 301.793 349.012C299.702 347.301 298.086 345.115 296.945 342.453L294.379 383.516C294.189 387.888 293.999 393.116 293.809 399.199C293.809 405.283 293.048 411.081 291.527 416.594C290.197 422.107 287.82 426.764 284.398 430.566C281.167 434.559 276.414 436.555 270.141 436.555C266.529 436.555 263.487 434.654 261.016 430.852C258.544 427.24 256.548 422.582 255.027 416.879C253.697 411.176 252.651 404.807 251.891 397.773C251.13 390.74 250.655 383.991 250.465 377.527C250.275 371.064 250.18 365.171 250.18 359.848C250.18 354.525 250.18 350.628 250.18 348.156C250.18 335.419 250.085 322.777 249.895 310.23C249.704 297.493 249.609 284.757 249.609 272.02C249.609 269.738 249.609 266.221 249.609 261.469C249.609 256.526 249.799 251.203 250.18 245.5C250.56 239.797 251.13 233.904 251.891 227.82C252.841 221.737 254.172 216.224 255.883 211.281C257.594 206.148 259.78 202.061 262.441 199.02C265.103 195.788 268.335 194.172 272.137 194.172C274.608 194.172 276.794 194.932 278.695 196.453C280.786 197.784 282.497 199.59 283.828 201.871C285.349 203.962 286.585 206.243 287.535 208.715C288.486 211.186 289.246 213.467 289.816 215.559C295.71 208.905 302.458 203.867 310.062 200.445C317.857 197.023 326.126 195.312 334.871 195.312C343.996 195.312 351.41 197.879 357.113 203.012C363.007 208.145 367.569 214.513 370.801 222.117C374.223 229.721 376.599 237.896 377.93 246.641C379.26 255.195 379.926 262.99 379.926 270.023ZM339.148 267.742C339.148 264.891 338.863 262.039 338.293 259.188C337.913 256.146 337.057 253.389 335.727 250.918C334.586 248.257 332.875 246.165 330.594 244.645C328.312 242.934 325.461 242.078 322.039 242.078C317.477 242.078 312.629 243.599 307.496 246.641C302.553 249.492 298.846 252.819 296.375 256.621C295.424 258.142 294.854 260.613 294.664 264.035C294.474 267.457 294.379 270.023 294.379 271.734C294.379 273.065 294.379 274.871 294.379 277.152C294.569 279.243 294.759 281.43 294.949 283.711C295.139 285.992 295.329 288.178 295.52 290.27C295.9 292.361 296.375 293.977 296.945 295.117C297.516 296.828 298.751 298.444 300.652 299.965C302.553 301.296 304.645 302.531 306.926 303.672C309.207 304.812 311.488 305.668 313.77 306.238C316.241 306.809 318.332 307.094 320.043 307.094C324.035 307.094 327.267 305.573 329.738 302.531C332.21 299.49 334.111 295.878 335.441 291.695C336.962 287.513 337.913 283.236 338.293 278.863C338.863 274.301 339.148 270.594 339.148 267.742Z" fill="white"/>
<defs>
<linearGradient id="paint0_linear" x1="385.5" y1="425.5" x2="66.5" y2="198" gradientUnits="userSpaceOnUse">
<stop stop-color="#4F71EC"/>
<stop offset="1" stop-color="#67B2E9"/>
</linearGradient>
</defs>
</svg>
